<svg viewBox="-16 -32 880 192" width="880" height="192" xmlns="http://www.w3.org/2000/svg"><desc>Generated with https://github.com/Platane/snk</desc><style>:root{--cb:#1b1f230a;--cs:purple;--ce:#ebedf0;--c0:#ebedf0;--c1:#9be9a8;--c2:#40c463;--c3:#30a14e;--c4:#216e39}.c{shape-rendering:geometricPrecision;fill:var(--ce);stroke-width:1px;stroke:var(--cb);animation:none 37500ms linear infinite;width:12px;height:12px}@keyframes c0{0.79%{fill:var(--c1)}0.81%,100%{fill:var(--ce)}}.c.c0{fill:var(--c1);animation-name:c0}@keyframes c1{1.06%{fill:var(--c1)}1.08%,100%{fill:var(--ce)}}.c.c1{fill:var(--c1);animation-name:c1}@keyframes c2{71.72%{fill:var(--c3)}71.74%,100%{fill:var(--ce)}}.c.c2{fill:var(--c3);animation-name:c2}@keyframes c3{1.59%{fill:var(--c1)}1.61%,100%{fill:var(--ce)}}.c.c3{fill:var(--c1);animation-name:c3}@keyframes c4{3.46%{fill:var(--c1)}3.48%,100%{fill:var(--ce)}}.c.c4{fill:var(--c1);animation-name:c4}@keyframes c5{42.12%{fill:var(--c1)}42.14%,100%{fill:var(--ce)}}.c.c5{fill:var(--c1);animation-name:c5}@keyframes c6{7.19%{fill:var(--c1)}7.21%,100%{fill:var(--ce)}}.c.c6{fill:var(--c1);animation-name:c6}@keyframes c7{12.26%{fill:var(--c1)}12.28%,100%{fill:var(--ce)}}.c.c7{fill:var(--c1);animation-name:c7}@keyframes c8{44.26%{fill:var(--c2)}44.28%,100%{fill:var(--ce)}}.c.c8{fill:var(--c2);animation-name:c8}@keyframes c9{44.52%{fill:var(--c2)}44.54%,100%{fill:var(--ce)}}.c.c9{fill:var(--c2);animation-name:c9}@keyframes ca{9.86%{fill:var(--c1)}9.88%,100%{fill:var(--ce)}}.c.ca{fill:var(--c1);animation-name:ca}@keyframes cb{9.59%{fill:var(--c1)}9.61%,100%{fill:var(--ce)}}.c.cb{fill:var(--c1);animation-name:cb}@keyframes cc{9.32%{fill:var(--c1)}9.34%,100%{fill:var(--ce)}}.c.cc{fill:var(--c1);animation-name:cc}@keyframes cd{12.79%{fill:var(--c1)}12.81%,100%{fill:var(--ce)}}.c.cd{fill:var(--c1);animation-name:cd}@keyframes ce{8.26%{fill:var(--c1)}8.28%,100%{fill:var(--ce)}}.c.ce{fill:var(--c1);animation-name:ce}@keyframes cf{7.99%{fill:var(--c1)}8.01%,100%{fill:var(--ce)}}.c.cf{fill:var(--c1);animation-name:cf}@keyframes cg{9.06%{fill:var(--c1)}9.08%,100%{fill:var(--ce)}}.c.cg{fill:var(--c1);animation-name:cg}@keyframes ch{8.79%{fill:var(--c1)}8.81%,100%{fill:var(--ce)}}.c.ch{fill:var(--c1);animation-name:ch}@keyframes ci{8.52%{fill:var(--c1)}8.54%,100%{fill:var(--ce)}}.c.ci{fill:var(--c1);animation-name:ci}@keyframes cj{45.06%{fill:var(--c2)}45.08%,100%{fill:var(--ce)}}.c.cj{fill:var(--c2);animation-name:cj}@keyframes ck{10.66%{fill:var(--c1)}10.68%,100%{fill:var(--ce)}}.c.ck{fill:var(--c1);animation-name:ck}@keyframes cl{14.39%{fill:var(--c1)}14.41%,100%{fill:var(--ce)}}.c.cl{fill:var(--c1);animation-name:cl}@keyframes cm{47.19%{fill:var(--c2)}47.21%,100%{fill:var(--ce)}}.c.cm{fill:var(--c2);animation-name:cm}@keyframes cn{17.59%{fill:var(--c1)}17.61%,100%{fill:var(--ce)}}.c.cn{fill:var(--c1);animation-name:cn}@keyframes co{15.72%{fill:var(--c1)}15.74%,100%{fill:var(--ce)}}.c.co{fill:var(--c1);animation-name:co}@keyframes cp{16.52%{fill:var(--c1)}16.54%,100%{fill:var(--ce)}}.c.cp{fill:var(--c1);animation-name:cp}@keyframes cq{20.52%{fill:var(--c1)}20.54%,100%{fill:var(--ce)}}.c.cq{fill:var(--c1);animation-name:cq}@keyframes cr{23.99%{fill:var(--c1)}24.01%,100%{fill:var(--ce)}}.c.cr{fill:var(--c1);animation-name:cr}@keyframes cs{22.39%{fill:var(--c1)}22.41%,100%{fill:var(--ce)}}.c.cs{fill:var(--c1);animation-name:cs}@keyframes ct{22.92%{fill:var(--c1)}22.94%,100%{fill:var(--ce)}}.c.ct{fill:var(--c1);animation-name:ct}@keyframes cu{26.92%{fill:var(--c1)}26.94%,100%{fill:var(--ce)}}.c.cu{fill:var(--c1);animation-name:cu}@keyframes cv{27.19%{fill:var(--c1)}27.21%,100%{fill:var(--ce)}}.c.cv{fill:var(--c1);animation-name:cv}@keyframes cw{27.99%{fill:var(--c1)}28.01%,100%{fill:var(--ce)}}.c.cw{fill:var(--c1);animation-name:cw}@keyframes cx{54.92%{fill:var(--c2)}54.94%,100%{fill:var(--ce)}}.c.cx{fill:var(--c2);animation-name:cx}@keyframes cy{58.12%{fill:var(--c3)}58.14%,100%{fill:var(--ce)}}.c.cy{fill:var(--c3);animation-name:cy}@keyframes cz{85.06%{fill:var(--c4)}85.08%,100%{fill:var(--ce)}}.c.cz{fill:var(--c4);animation-name:cz}@keyframes c10{56.52%{fill:var(--c2)}56.54%,100%{fill:var(--ce)}}.c.c10{fill:var(--c2);animation-name:c10}@keyframes c11{56.79%{fill:var(--c3)}56.81%,100%{fill:var(--ce)}}.c.c11{fill:var(--c3);animation-name:c11}@keyframes c12{29.32%{fill:var(--c1)}29.34%,100%{fill:var(--ce)}}.c.c12{fill:var(--c1);animation-name:c12}@keyframes c13{30.12%{fill:var(--c1)}30.14%,100%{fill:var(--ce)}}.c.c13{fill:var(--c1);animation-name:c13}@keyframes c14{30.39%{fill:var(--c1)}30.41%,100%{fill:var(--ce)}}.c.c14{fill:var(--c1);animation-name:c14}.u{transform-origin:0 0;transform:scale(0,1);animation:none linear 37500ms infinite}@keyframes u0{0.79%{transform:scale(0.000,1)}0.81%,1.06%{transform:scale(0.032,1)}1.08%,1.59%{transform:scale(0.065,1)}1.61%,3.46%{transform:scale(0.097,1)}3.48%,7.19%{transform:scale(0.129,1)}7.21%,7.99%{transform:scale(0.161,1)}8.01%,8.26%{transform:scale(0.194,1)}8.28%,8.52%{transform:scale(0.226,1)}8.54%,8.79%{transform:scale(0.258,1)}8.81%,9.06%{transform:scale(0.290,1)}9.08%,9.32%{transform:scale(0.323,1)}9.34%,9.59%{transform:scale(0.355,1)}9.61%,9.86%{transform:scale(0.387,1)}9.88%,10.66%{transform:scale(0.419,1)}10.68%,12.26%{transform:scale(0.452,1)}12.28%,12.79%{transform:scale(0.484,1)}12.81%,14.39%{transform:scale(0.516,1)}14.41%,15.72%{transform:scale(0.548,1)}15.74%,16.52%{transform:scale(0.581,1)}16.54%,17.59%{transform:scale(0.613,1)}17.61%,20.52%{transform:scale(0.645,1)}20.54%,22.39%{transform:scale(0.677,1)}22.41%,22.92%{transform:scale(0.710,1)}22.94%,23.99%{transform:scale(0.742,1)}24.01%,26.92%{transform:scale(0.774,1)}26.94%,27.19%{transform:scale(0.806,1)}27.21%,27.99%{transform:scale(0.839,1)}28.01%,29.32%{transform:scale(0.871,1)}29.34%,30.12%{transform:scale(0.903,1)}30.14%,30.39%{transform:scale(0.935,1)}30.41%,42.12%{transform:scale(0.968,1)}42.14%,100%{transform:scale(1.000,1)}}.u.u0{fill:var(--c1);animation-name:u0;transform-origin:0.0px 0}@keyframes u1{44.26%{transform:scale(0.000,1)}44.28%,44.52%{transform:scale(0.167,1)}44.54%,45.06%{transform:scale(0.333,1)}45.08%,47.19%{transform:scale(0.500,1)}47.21%,54.92%{transform:scale(0.667,1)}54.94%,56.52%{transform:scale(0.833,1)}56.54%,100%{transform:scale(1.000,1)}}.u.u1{fill:var(--c2);animation-name:u1;transform-origin:641.2px 0}@keyframes u2{56.79%{transform:scale(0.000,1)}56.81%,58.12%{transform:scale(0.333,1)}58.14%,71.72%{transform:scale(0.667,1)}71.74%,100%{transform:scale(1.000,1)}}.u.u2{fill:var(--c3);animation-name:u2;transform-origin:765.3px 0}@keyframes u3{85.06%{transform:scale(0.000,1)}85.08%,100%{transform:scale(1.000,1)}}.u.u3{fill:var(--c4);animation-name:u3;transform-origin:827.3px 0}.s{shape-rendering:geometricPrecision;fill:var(--cs);animation:none linear 37500ms infinite}@keyframes s0{0%,99.73%{transform:translate(0px,-16px)}0.27%{transform:translate(0px,0px)}0.53%{transform:translate(16px,0px)}0.8%{transform:translate(16px,16px)}1.33%,2.4%{transform:translate(48px,16px)}1.6%{transform:translate(48px,0px)}1.87%{transform:translate(64px,0px)}2.13%{transform:translate(64px,16px)}3.47%{transform:translate(48px,80px)}6.93%{transform:translate(256px,80px)}7.2%{transform:translate(256px,96px)}7.73%{transform:translate(288px,96px)}8.27%{transform:translate(288px,64px)}8.53%{transform:translate(304px,64px)}9.07%{transform:translate(304px,32px)}9.33%,12.53%{transform:translate(288px,32px)}9.87%{transform:translate(288px,0px)}10.67%,40%{transform:translate(336px,0px)}10.93%,39.73%{transform:translate(336px,16px)}12%,43.47%{transform:translate(272px,16px)}12.27%{transform:translate(272px,32px)}12.8%{transform:translate(288px,48px)}13.6%{transform:translate(336px,48px)}14.4%{transform:translate(336px,96px)}16.27%{transform:translate(448px,96px)}17.07%{transform:translate(448px,48px)}17.6%{transform:translate(416px,48px)}17.87%{transform:translate(416px,64px)}20%{transform:translate(544px,64px)}20.53%{transform:translate(544px,96px)}21.6%{transform:translate(608px,96px)}22.4%{transform:translate(608px,48px)}22.67%{transform:translate(624px,48px)}23.2%{transform:translate(624px,16px)}24%{transform:translate(576px,16px)}24.27%{transform:translate(576px,32px)}26.67%{transform:translate(720px,32px)}26.93%{transform:translate(720px,48px)}27.47%{transform:translate(752px,48px)}28%{transform:translate(752px,16px)}28.53%,32.27%{transform:translate(784px,16px)}28.8%{transform:translate(784px,0px)}29.33%{transform:translate(816px,0px)}30.4%{transform:translate(816px,64px)}30.67%{transform:translate(832px,64px)}31.2%{transform:translate(832px,32px)}32%{transform:translate(784px,32px)}42.13%{transform:translate(208px,0px)}42.4%{transform:translate(208px,16px)}44.53%{transform:translate(272px,80px)}45.87%{transform:translate(352px,80px)}47.2%{transform:translate(352px,0px)}54.67%{transform:translate(800px,0px)}54.93%{transform:translate(800px,16px)}55.2%{transform:translate(816px,16px)}56.27%{transform:translate(816px,80px)}56.53%{transform:translate(800px,80px)}56.8%,84.53%{transform:translate(800px,96px)}57.07%{transform:translate(816px,96px)}57.87%{transform:translate(816px,48px)}70.93%{transform:translate(32px,48px)}71.73%{transform:translate(32px,96px)}85.07%{transform:translate(800px,64px)}97.07%{transform:translate(80px,64px)}98.4%{transform:translate(80px,-16px)}}.s.s0{transform:translate(0px,-16px);animation-name:s0}@keyframes s1{0%,99.73%{transform:translate(16px,-16px)}0.27%{transform:translate(0px,-16px)}0.53%{transform:translate(0px,0px)}0.8%{transform:translate(16px,0px)}1.07%{transform:translate(16px,16px)}1.6%,2.67%{transform:translate(48px,16px)}1.87%{transform:translate(48px,0px)}2.13%{transform:translate(64px,0px)}2.4%{transform:translate(64px,16px)}3.73%{transform:translate(48px,80px)}7.2%{transform:translate(256px,80px)}7.47%{transform:translate(256px,96px)}8%{transform:translate(288px,96px)}8.53%{transform:translate(288px,64px)}8.8%{transform:translate(304px,64px)}9.33%{transform:translate(304px,32px)}9.6%,12.8%{transform:translate(288px,32px)}10.13%{transform:translate(288px,0px)}10.93%,40.27%{transform:translate(336px,0px)}11.2%,40%{transform:translate(336px,16px)}12.27%,43.73%{transform:translate(272px,16px)}12.53%{transform:translate(272px,32px)}13.07%{transform:translate(288px,48px)}13.87%{transform:translate(336px,48px)}14.67%{transform:translate(336px,96px)}16.53%{transform:translate(448px,96px)}17.33%{transform:translate(448px,48px)}17.87%{transform:translate(416px,48px)}18.13%{transform:translate(416px,64px)}20.27%{transform:translate(544px,64px)}20.8%{transform:translate(544px,96px)}21.87%{transform:translate(608px,96px)}22.67%{transform:translate(608px,48px)}22.93%{transform:translate(624px,48px)}23.47%{transform:translate(624px,16px)}24.27%{transform:translate(576px,16px)}24.53%{transform:translate(576px,32px)}26.93%{transform:translate(720px,32px)}27.2%{transform:translate(720px,48px)}27.73%{transform:translate(752px,48px)}28.27%{transform:translate(752px,16px)}28.8%,32.53%{transform:translate(784px,16px)}29.07%{transform:translate(784px,0px)}29.6%{transform:translate(816px,0px)}30.67%{transform:translate(816px,64px)}30.93%{transform:translate(832px,64px)}31.47%{transform:translate(832px,32px)}32.27%{transform:translate(784px,32px)}42.4%{transform:translate(208px,0px)}42.67%{transform:translate(208px,16px)}44.8%{transform:translate(272px,80px)}46.13%{transform:translate(352px,80px)}47.47%{transform:translate(352px,0px)}54.93%{transform:translate(800px,0px)}55.2%{transform:translate(800px,16px)}55.47%{transform:translate(816px,16px)}56.53%{transform:translate(816px,80px)}56.8%{transform:translate(800px,80px)}57.07%,84.8%{transform:translate(800px,96px)}57.33%{transform:translate(816px,96px)}58.13%{transform:translate(816px,48px)}71.2%{transform:translate(32px,48px)}72%{transform:translate(32px,96px)}85.33%{transform:translate(800px,64px)}97.33%{transform:translate(80px,64px)}98.67%{transform:translate(80px,-16px)}}.s.s1{transform:translate(16px,-16px);animation-name:s1}@keyframes s2{0%,99.73%{transform:translate(32px,-16px)}0.53%{transform:translate(0px,-16px)}0.8%{transform:translate(0px,0px)}1.07%{transform:translate(16px,0px)}1.33%{transform:translate(16px,16px)}1.87%,2.93%{transform:translate(48px,16px)}2.13%{transform:translate(48px,0px)}2.4%{transform:translate(64px,0px)}2.67%{transform:translate(64px,16px)}4%{transform:translate(48px,80px)}7.47%{transform:translate(256px,80px)}7.73%{transform:translate(256px,96px)}8.27%{transform:translate(288px,96px)}8.8%{transform:translate(288px,64px)}9.07%{transform:translate(304px,64px)}9.6%{transform:translate(304px,32px)}9.87%,13.07%{transform:translate(288px,32px)}10.4%{transform:translate(288px,0px)}11.2%,40.53%{transform:translate(336px,0px)}11.47%,40.27%{transform:translate(336px,16px)}12.53%,44%{transform:translate(272px,16px)}12.8%{transform:translate(272px,32px)}13.33%{transform:translate(288px,48px)}14.13%{transform:translate(336px,48px)}14.93%{transform:translate(336px,96px)}16.8%{transform:translate(448px,96px)}17.6%{transform:translate(448px,48px)}18.13%{transform:translate(416px,48px)}18.4%{transform:translate(416px,64px)}20.53%{transform:translate(544px,64px)}21.07%{transform:translate(544px,96px)}22.13%{transform:translate(608px,96px)}22.93%{transform:translate(608px,48px)}23.2%{transform:translate(624px,48px)}23.73%{transform:translate(624px,16px)}24.53%{transform:translate(576px,16px)}24.8%{transform:translate(576px,32px)}27.2%{transform:translate(720px,32px)}27.47%{transform:translate(720px,48px)}28%{transform:translate(752px,48px)}28.53%{transform:translate(752px,16px)}29.07%,32.8%{transform:translate(784px,16px)}29.33%{transform:translate(784px,0px)}29.87%{transform:translate(816px,0px)}30.93%{transform:translate(816px,64px)}31.2%{transform:translate(832px,64px)}31.73%{transform:translate(832px,32px)}32.53%{transform:translate(784px,32px)}42.67%{transform:translate(208px,0px)}42.93%{transform:translate(208px,16px)}45.07%{transform:translate(272px,80px)}46.4%{transform:translate(352px,80px)}47.73%{transform:translate(352px,0px)}55.2%{transform:translate(800px,0px)}55.47%{transform:translate(800px,16px)}55.73%{transform:translate(816px,16px)}56.8%{transform:translate(816px,80px)}57.07%{transform:translate(800px,80px)}57.33%,85.07%{transform:translate(800px,96px)}57.6%{transform:translate(816px,96px)}58.4%{transform:translate(816px,48px)}71.47%{transform:translate(32px,48px)}72.27%{transform:translate(32px,96px)}85.6%{transform:translate(800px,64px)}97.6%{transform:translate(80px,64px)}98.93%{transform:translate(80px,-16px)}}.s.s2{transform:translate(32px,-16px);animation-name:s2}@keyframes s3{0%,99.73%{transform:translate(48px,-16px)}0.8%{transform:translate(0px,-16px)}1.07%{transform:translate(0px,0px)}1.33%{transform:translate(16px,0px)}1.6%{transform:translate(16px,16px)}2.13%,3.2%{transform:translate(48px,16px)}2.4%{transform:translate(48px,0px)}2.67%{transform:translate(64px,0px)}2.93%{transform:translate(64px,16px)}4.27%{transform:translate(48px,80px)}7.73%{transform:translate(256px,80px)}8%{transform:translate(256px,96px)}8.53%{transform:translate(288px,96px)}9.07%{transform:translate(288px,64px)}9.33%{transform:translate(304px,64px)}9.87%{transform:translate(304px,32px)}10.13%,13.33%{transform:translate(288px,32px)}10.67%{transform:translate(288px,0px)}11.47%,40.8%{transform:translate(336px,0px)}11.73%,40.53%{transform:translate(336px,16px)}12.8%,44.27%{transform:translate(272px,16px)}13.07%{transform:translate(272px,32px)}13.6%{transform:translate(288px,48px)}14.4%{transform:translate(336px,48px)}15.2%{transform:translate(336px,96px)}17.07%{transform:translate(448px,96px)}17.87%{transform:translate(448px,48px)}18.4%{transform:translate(416px,48px)}18.67%{transform:translate(416px,64px)}20.8%{transform:translate(544px,64px)}21.33%{transform:translate(544px,96px)}22.4%{transform:translate(608px,96px)}23.2%{transform:translate(608px,48px)}23.47%{transform:translate(624px,48px)}24%{transform:translate(624px,16px)}24.8%{transform:translate(576px,16px)}25.07%{transform:translate(576px,32px)}27.47%{transform:translate(720px,32px)}27.73%{transform:translate(720px,48px)}28.27%{transform:translate(752px,48px)}28.8%{transform:translate(752px,16px)}29.33%,33.07%{transform:translate(784px,16px)}29.6%{transform:translate(784px,0px)}30.13%{transform:translate(816px,0px)}31.2%{transform:translate(816px,64px)}31.47%{transform:translate(832px,64px)}32%{transform:translate(832px,32px)}32.8%{transform:translate(784px,32px)}42.93%{transform:translate(208px,0px)}43.2%{transform:translate(208px,16px)}45.33%{transform:translate(272px,80px)}46.67%{transform:translate(352px,80px)}48%{transform:translate(352px,0px)}55.47%{transform:translate(800px,0px)}55.73%{transform:translate(800px,16px)}56%{transform:translate(816px,16px)}57.07%{transform:translate(816px,80px)}57.33%{transform:translate(800px,80px)}57.6%,85.33%{transform:translate(800px,96px)}57.87%{transform:translate(816px,96px)}58.67%{transform:translate(816px,48px)}71.73%{transform:translate(32px,48px)}72.53%{transform:translate(32px,96px)}85.87%{transform:translate(800px,64px)}97.87%{transform:translate(80px,64px)}99.2%{transform:translate(80px,-16px)}}.s.s3{transform:translate(48px,-16px);animation-name:s3}</style><rect class="c" x="2" y="2" rx="2" ry="2"/><rect class="c" x="2" y="18" rx="2" ry="2"/><rect class="c" x="2" y="34" rx="2" ry="2"/><rect class="c" x="2" y="50" rx="2" ry="2"/><rect class="c" x="2" y="66" rx="2" ry="2"/><rect class="c" x="2" y="82" rx="2" ry="2"/><rect class="c" x="2" y="98" rx="2" ry="2"/><rect class="c" x="18" y="2" rx="2" ry="2"/><rect class="c c0" x="18" y="18" rx="2" ry="2"/><rect class="c" x="18" y="34" rx="2" ry="2"/><rect class="c" x="18" y="50" rx="2" ry="2"/><rect class="c" x="18" y="66" rx="2" ry="2"/><rect class="c" x="18" y="82" rx="2" ry="2"/><rect class="c" x="18" y="98" rx="2" ry="2"/><rect class="c" x="34" y="2" rx="2" ry="2"/><rect class="c c1" x="34" y="18" rx="2" ry="2"/><rect class="c" x="34" y="34" rx="2" ry="2"/><rect class="c" x="34" y="50" rx="2" ry="2"/><rect class="c" x="34" y="66" rx="2" ry="2"/><rect class="c" x="34" y="82" rx="2" ry="2"/><rect class="c c2" x="34" y="98" rx="2" ry="2"/><rect class="c c3" x="50" y="2" rx="2" ry="2"/><rect class="c" x="50" y="18" rx="2" ry="2"/><rect class="c" x="50" y="34" rx="2" ry="2"/><rect class="c" x="50" y="50" rx="2" ry="2"/><rect class="c" x="50" y="66" rx="2" ry="2"/><rect class="c c4" x="50" y="82" rx="2" ry="2"/><rect class="c" x="50" y="98" rx="2" ry="2"/><rect class="c" x="66" y="2" rx="2" ry="2"/><rect class="c" x="66" y="18" rx="2" ry="2"/><rect class="c" x="66" y="34" rx="2" ry="2"/><rect class="c" x="66" y="50" rx="2" ry="2"/><rect class="c" x="66" y="66" rx="2" ry="2"/><rect class="c" x="66" y="82" rx="2" ry="2"/><rect class="c" x="66" y="98" rx="2" ry="2"/><rect class="c" x="82" y="2" rx="2" ry="2"/><rect class="c" x="82" y="18" rx="2" ry="2"/><rect class="c" x="82" y="34" rx="2" ry="2"/><rect class="c" x="82" y="50" rx="2" ry="2"/><rect class="c" x="82" y="66" rx="2" ry="2"/><rect class="c" x="82" y="82" rx="2" ry="2"/><rect class="c" x="82" y="98" rx="2" ry="2"/><rect class="c" x="98" y="2" rx="2" ry="2"/><rect class="c" x="98" y="18" rx="2" ry="2"/><rect class="c" x="98" y="34" rx="2" ry="2"/><rect class="c" x="98" y="50" rx="2" ry="2"/><rect class="c" x="98" y="66" rx="2" ry="2"/><rect class="c" x="98" y="82" rx="2" ry="2"/><rect class="c" x="98" y="98" rx="2" ry="2"/><rect class="c" x="114" y="2" rx="2" ry="2"/><rect class="c" x="114" y="18" rx="2" ry="2"/><rect class="c" x="114" y="34" rx="2" ry="2"/><rect class="c" x="114" y="50" rx="2" ry="2"/><rect class="c" x="114" y="66" rx="2" ry="2"/><rect class="c" x="114" y="82" rx="2" ry="2"/><rect class="c" x="114" y="98" rx="2" ry="2"/><rect class="c" x="130" y="2" rx="2" ry="2"/><rect class="c" x="130" y="18" rx="2" ry="2"/><rect class="c" x="130" y="34" rx="2" ry="2"/><rect class="c" x="130" y="50" rx="2" ry="2"/><rect class="c" x="130" y="66" rx="2" ry="2"/><rect class="c" x="130" y="82" rx="2" ry="2"/><rect class="c" x="130" y="98" rx="2" ry="2"/><rect class="c" x="146" y="2" rx="2" ry="2"/><rect class="c" x="146" y="18" rx="2" ry="2"/><rect class="c" x="146" y="34" rx="2" ry="2"/><rect class="c" x="146" y="50" rx="2" ry="2"/><rect class="c" x="146" y="66" rx="2" ry="2"/><rect class="c" x="146" y="82" rx="2" ry="2"/><rect class="c" x="146" y="98" rx="2" ry="2"/><rect class="c" x="162" y="2" rx="2" ry="2"/><rect class="c" x="162" y="18" rx="2" ry="2"/><rect class="c" x="162" y="34" rx="2" ry="2"/><rect class="c" x="162" y="50" rx="2" ry="2"/><rect class="c" x="162" y="66" rx="2" ry="2"/><rect class="c" x="162" y="82" rx="2" ry="2"/><rect class="c" x="162" y="98" rx="2" ry="2"/><rect class="c" x="178" y="2" rx="2" ry="2"/><rect class="c" x="178" y="18" rx="2" ry="2"/><rect class="c" x="178" y="34" rx="2" ry="2"/><rect class="c" x="178" y="50" rx="2" ry="2"/><rect class="c" x="178" y="66" rx="2" ry="2"/><rect class="c" x="178" y="82" rx="2" ry="2"/><rect class="c" x="178" y="98" rx="2" ry="2"/><rect class="c" x="194" y="2" rx="2" ry="2"/><rect class="c" x="194" y="18" rx="2" ry="2"/><rect class="c" x="194" y="34" rx="2" ry="2"/><rect class="c" x="194" y="50" rx="2" ry="2"/><rect class="c" x="194" y="66" rx="2" ry="2"/><rect class="c" x="194" y="82" rx="2" ry="2"/><rect class="c" x="194" y="98" rx="2" ry="2"/><rect class="c c5" x="210" y="2" rx="2" ry="2"/><rect class="c" x="210" y="18" rx="2" ry="2"/><rect class="c" x="210" y="34" rx="2" ry="2"/><rect class="c" x="210" y="50" rx="2" ry="2"/><rect class="c" x="210" y="66" rx="2" ry="2"/><rect class="c" x="210" y="82" rx="2" ry="2"/><rect class="c" x="210" y="98" rx="2" ry="2"/><rect class="c" x="226" y="2" rx="2" ry="2"/><rect class="c" x="226" y="18" rx="2" ry="2"/><rect class="c" x="226" y="34" rx="2" ry="2"/><rect class="c" x="226" y="50" rx="2" ry="2"/><rect class="c" x="226" y="66" rx="2" ry="2"/><rect class="c" x="226" y="82" rx="2" ry="2"/><rect class="c" x="226" y="98" rx="2" ry="2"/><rect class="c" x="242" y="2" rx="2" ry="2"/><rect class="c" x="242" y="18" rx="2" ry="2"/><rect class="c" x="242" y="34" rx="2" ry="2"/><rect class="c" x="242" y="50" rx="2" ry="2"/><rect class="c" x="242" y="66" rx="2" ry="2"/><rect class="c" x="242" y="82" rx="2" ry="2"/><rect class="c" x="242" y="98" rx="2" ry="2"/><rect class="c" x="258" y="2" rx="2" ry="2"/><rect class="c" x="258" y="18" rx="2" ry="2"/><rect class="c" x="258" y="34" rx="2" ry="2"/><rect class="c" x="258" y="50" rx="2" ry="2"/><rect class="c" x="258" y="66" rx="2" ry="2"/><rect class="c" x="258" y="82" rx="2" ry="2"/><rect class="c c6" x="258" y="98" rx="2" ry="2"/><rect class="c" x="274" y="2" rx="2" ry="2"/><rect class="c" x="274" y="18" rx="2" ry="2"/><rect class="c c7" x="274" y="34" rx="2" ry="2"/><rect class="c" x="274" y="50" rx="2" ry="2"/><rect class="c c8" x="274" y="66" rx="2" ry="2"/><rect class="c c9" x="274" y="82" rx="2" ry="2"/><rect class="c" x="274" y="98" rx="2" ry="2"/><rect class="c ca" x="290" y="2" rx="2" ry="2"/><rect class="c cb" x="290" y="18" rx="2" ry="2"/><rect class="c cc" x="290" y="34" rx="2" ry="2"/><rect class="c cd" x="290" y="50" rx="2" ry="2"/><rect class="c ce" x="290" y="66" rx="2" ry="2"/><rect class="c cf" x="290" y="82" rx="2" ry="2"/><rect class="c" x="290" y="98" rx="2" ry="2"/><rect class="c" x="306" y="2" rx="2" ry="2"/><rect class="c" x="306" y="18" rx="2" ry="2"/><rect class="c cg" x="306" y="34" rx="2" ry="2"/><rect class="c ch" x="306" y="50" rx="2" ry="2"/><rect class="c ci" x="306" y="66" rx="2" ry="2"/><rect class="c cj" x="306" y="82" rx="2" ry="2"/><rect class="c" x="306" y="98" rx="2" ry="2"/><rect class="c" x="322" y="2" rx="2" ry="2"/><rect class="c" x="322" y="18" rx="2" ry="2"/><rect class="c" x="322" y="34" rx="2" ry="2"/><rect class="c" x="322" y="50" rx="2" ry="2"/><rect class="c" x="322" y="66" rx="2" ry="2"/><rect class="c" x="322" y="82" rx="2" ry="2"/><rect class="c" x="322" y="98" rx="2" ry="2"/><rect class="c ck" x="338" y="2" rx="2" ry="2"/><rect class="c" x="338" y="18" rx="2" ry="2"/><rect class="c" x="338" y="34" rx="2" ry="2"/><rect class="c" x="338" y="50" rx="2" ry="2"/><rect class="c" x="338" y="66" rx="2" ry="2"/><rect class="c" x="338" y="82" rx="2" ry="2"/><rect class="c cl" x="338" y="98" rx="2" ry="2"/><rect class="c cm" x="354" y="2" rx="2" ry="2"/><rect class="c" x="354" y="18" rx="2" ry="2"/><rect class="c" x="354" y="34" rx="2" ry="2"/><rect class="c" x="354" y="50" rx="2" ry="2"/><rect class="c" x="354" y="66" rx="2" ry="2"/><rect class="c" x="354" y="82" rx="2" ry="2"/><rect class="c" x="354" y="98" rx="2" ry="2"/><rect class="c" x="370" y="2" rx="2" ry="2"/><rect class="c" x="370" y="18" rx="2" ry="2"/><rect class="c" x="370" y="34" rx="2" ry="2"/><rect class="c" x="370" y="50" rx="2" ry="2"/><rect class="c" x="370" y="66" rx="2" ry="2"/><rect class="c" x="370" y="82" rx="2" ry="2"/><rect class="c" x="370" y="98" rx="2" ry="2"/><rect class="c" x="386" y="2" rx="2" ry="2"/><rect class="c" x="386" y="18" rx="2" ry="2"/><rect class="c" x="386" y="34" rx="2" ry="2"/><rect class="c" x="386" y="50" rx="2" ry="2"/><rect class="c" x="386" y="66" rx="2" ry="2"/><rect class="c" x="386" y="82" rx="2" ry="2"/><rect class="c" x="386" y="98" rx="2" ry="2"/><rect class="c" x="402" y="2" rx="2" ry="2"/><rect class="c" x="402" y="18" rx="2" ry="2"/><rect class="c" x="402" y="34" rx="2" ry="2"/><rect class="c" x="402" y="50" rx="2" ry="2"/><rect class="c" x="402" y="66" rx="2" ry="2"/><rect class="c" x="402" y="82" rx="2" ry="2"/><rect class="c" x="402" y="98" rx="2" ry="2"/><rect class="c" x="418" y="2" rx="2" ry="2"/><rect class="c" x="418" y="18" rx="2" ry="2"/><rect class="c" x="418" y="34" rx="2" ry="2"/><rect class="c cn" x="418" y="50" rx="2" ry="2"/><rect class="c" x="418" y="66" rx="2" ry="2"/><rect class="c" x="418" y="82" rx="2" ry="2"/><rect class="c co" x="418" y="98" rx="2" ry="2"/><rect class="c" x="434" y="2" rx="2" ry="2"/><rect class="c" x="434" y="18" rx="2" ry="2"/><rect class="c" x="434" y="34" rx="2" ry="2"/><rect class="c" x="434" y="50" rx="2" ry="2"/><rect class="c" x="434" y="66" rx="2" ry="2"/><rect class="c" x="434" y="82" rx="2" ry="2"/><rect class="c" x="434" y="98" rx="2" ry="2"/><rect class="c" x="450" y="2" rx="2" ry="2"/><rect class="c" x="450" y="18" rx="2" ry="2"/><rect class="c" x="450" y="34" rx="2" ry="2"/><rect class="c" x="450" y="50" rx="2" ry="2"/><rect class="c" x="450" y="66" rx="2" ry="2"/><rect class="c cp" x="450" y="82" rx="2" ry="2"/><rect class="c" x="450" y="98" rx="2" ry="2"/><rect class="c" x="466" y="2" rx="2" ry="2"/><rect class="c" x="466" y="18" rx="2" ry="2"/><rect class="c" x="466" y="34" rx="2" ry="2"/><rect class="c" x="466" y="50" rx="2" ry="2"/><rect class="c" x="466" y="66" rx="2" ry="2"/><rect class="c" x="466" y="82" rx="2" ry="2"/><rect class="c" x="466" y="98" rx="2" ry="2"/><rect class="c" x="482" y="2" rx="2" ry="2"/><rect class="c" x="482" y="18" rx="2" ry="2"/><rect class="c" x="482" y="34" rx="2" ry="2"/><rect class="c" x="482" y="50" rx="2" ry="2"/><rect class="c" x="482" y="66" rx="2" ry="2"/><rect class="c" x="482" y="82" rx="2" ry="2"/><rect class="c" x="482" y="98" rx="2" ry="2"/><rect class="c" x="498" y="2" rx="2" ry="2"/><rect class="c" x="498" y="18" rx="2" ry="2"/><rect class="c" x="498" y="34" rx="2" ry="2"/><rect class="c" x="498" y="50" rx="2" ry="2"/><rect class="c" x="498" y="66" rx="2" ry="2"/><rect class="c" x="498" y="82" rx="2" ry="2"/><rect class="c" x="498" y="98" rx="2" ry="2"/><rect class="c" x="514" y="2" rx="2" ry="2"/><rect class="c" x="514" y="18" rx="2" ry="2"/><rect class="c" x="514" y="34" rx="2" ry="2"/><rect class="c" x="514" y="50" rx="2" ry="2"/><rect class="c" x="514" y="66" rx="2" ry="2"/><rect class="c" x="514" y="82" rx="2" ry="2"/><rect class="c" x="514" y="98" rx="2" ry="2"/><rect class="c" x="530" y="2" rx="2" ry="2"/><rect class="c" x="530" y="18" rx="2" ry="2"/><rect class="c" x="530" y="34" rx="2" ry="2"/><rect class="c" x="530" y="50" rx="2" ry="2"/><rect class="c" x="530" y="66" rx="2" ry="2"/><rect class="c" x="530" y="82" rx="2" ry="2"/><rect class="c" x="530" y="98" rx="2" ry="2"/><rect class="c" x="546" y="2" rx="2" ry="2"/><rect class="c" x="546" y="18" rx="2" ry="2"/><rect class="c" x="546" y="34" rx="2" ry="2"/><rect class="c" x="546" y="50" rx="2" ry="2"/><rect class="c" x="546" y="66" rx="2" ry="2"/><rect class="c" x="546" y="82" rx="2" ry="2"/><rect class="c cq" x="546" y="98" rx="2" ry="2"/><rect class="c" x="562" y="2" rx="2" ry="2"/><rect class="c" x="562" y="18" rx="2" ry="2"/><rect class="c" x="562" y="34" rx="2" ry="2"/><rect class="c" x="562" y="50" rx="2" ry="2"/><rect class="c" x="562" y="66" rx="2" ry="2"/><rect class="c" x="562" y="82" rx="2" ry="2"/><rect class="c" x="562" y="98" rx="2" ry="2"/><rect class="c" x="578" y="2" rx="2" ry="2"/><rect class="c cr" x="578" y="18" rx="2" ry="2"/><rect class="c" x="578" y="34" rx="2" ry="2"/><rect class="c" x="578" y="50" rx="2" ry="2"/><rect class="c" x="578" y="66" rx="2" ry="2"/><rect class="c" x="578" y="82" rx="2" ry="2"/><rect class="c" x="578" y="98" rx="2" ry="2"/><rect class="c" x="594" y="2" rx="2" ry="2"/><rect class="c" x="594" y="18" rx="2" ry="2"/><rect class="c" x="594" y="34" rx="2" ry="2"/><rect class="c" x="594" y="50" rx="2" ry="2"/><rect class="c" x="594" y="66" rx="2" ry="2"/><rect class="c" x="594" y="82" rx="2" ry="2"/><rect class="c" x="594" y="98" rx="2" ry="2"/><rect class="c" x="610" y="2" rx="2" ry="2"/><rect class="c" x="610" y="18" rx="2" ry="2"/><rect class="c" x="610" y="34" rx="2" ry="2"/><rect class="c cs" x="610" y="50" rx="2" ry="2"/><rect class="c" x="610" y="66" rx="2" ry="2"/><rect class="c" x="610" y="82" rx="2" ry="2"/><rect class="c" x="610" y="98" rx="2" ry="2"/><rect class="c" x="626" y="2" rx="2" ry="2"/><rect class="c" x="626" y="18" rx="2" ry="2"/><rect class="c ct" x="626" y="34" rx="2" ry="2"/><rect class="c" x="626" y="50" rx="2" ry="2"/><rect class="c" x="626" y="66" rx="2" ry="2"/><rect class="c" x="626" y="82" rx="2" ry="2"/><rect class="c" x="626" y="98" rx="2" ry="2"/><rect class="c" x="642" y="2" rx="2" ry="2"/><rect class="c" x="642" y="18" rx="2" ry="2"/><rect class="c" x="642" y="34" rx="2" ry="2"/><rect class="c" x="642" y="50" rx="2" ry="2"/><rect class="c" x="642" y="66" rx="2" ry="2"/><rect class="c" x="642" y="82" rx="2" ry="2"/><rect class="c" x="642" y="98" rx="2" ry="2"/><rect class="c" x="658" y="2" rx="2" ry="2"/><rect class="c" x="658" y="18" rx="2" ry="2"/><rect class="c" x="658" y="34" rx="2" ry="2"/><rect class="c" x="658" y="50" rx="2" ry="2"/><rect class="c" x="658" y="66" rx="2" ry="2"/><rect class="c" x="658" y="82" rx="2" ry="2"/><rect class="c" x="658" y="98" rx="2" ry="2"/><rect class="c" x="674" y="2" rx="2" ry="2"/><rect class="c" x="674" y="18" rx="2" ry="2"/><rect class="c" x="674" y="34" rx="2" ry="2"/><rect class="c" x="674" y="50" rx="2" ry="2"/><rect class="c" x="674" y="66" rx="2" ry="2"/><rect class="c" x="674" y="82" rx="2" ry="2"/><rect class="c" x="674" y="98" rx="2" ry="2"/><rect class="c" x="690" y="2" rx="2" ry="2"/><rect class="c" x="690" y="18" rx="2" ry="2"/><rect class="c" x="690" y="34" rx="2" ry="2"/><rect class="c" x="690" y="50" rx="2" ry="2"/><rect class="c" x="690" y="66" rx="2" ry="2"/><rect class="c" x="690" y="82" rx="2" ry="2"/><rect class="c" x="690" y="98" rx="2" ry="2"/><rect class="c" x="706" y="2" rx="2" ry="2"/><rect class="c" x="706" y="18" rx="2" ry="2"/><rect class="c" x="706" y="34" rx="2" ry="2"/><rect class="c" x="706" y="50" rx="2" ry="2"/><rect class="c" x="706" y="66" rx="2" ry="2"/><rect class="c" x="706" y="82" rx="2" ry="2"/><rect class="c" x="706" y="98" rx="2" ry="2"/><rect class="c" x="722" y="2" rx="2" ry="2"/><rect class="c" x="722" y="18" rx="2" ry="2"/><rect class="c" x="722" y="34" rx="2" ry="2"/><rect class="c cu" x="722" y="50" rx="2" ry="2"/><rect class="c" x="722" y="66" rx="2" ry="2"/><rect class="c" x="722" y="82" rx="2" ry="2"/><rect class="c" x="722" y="98" rx="2" ry="2"/><rect class="c" x="738" y="2" rx="2" ry="2"/><rect class="c" x="738" y="18" rx="2" ry="2"/><rect class="c" x="738" y="34" rx="2" ry="2"/><rect class="c cv" x="738" y="50" rx="2" ry="2"/><rect class="c" x="738" y="66" rx="2" ry="2"/><rect class="c" x="738" y="82" rx="2" ry="2"/><rect class="c" x="738" y="98" rx="2" ry="2"/><rect class="c" x="754" y="2" rx="2" ry="2"/><rect class="c cw" x="754" y="18" rx="2" ry="2"/><rect class="c" x="754" y="34" rx="2" ry="2"/><rect class="c" x="754" y="50" rx="2" ry="2"/><rect class="c" x="754" y="66" rx="2" ry="2"/><rect class="c" x="754" y="82" rx="2" ry="2"/><rect class="c" x="754" y="98" rx="2" ry="2"/><rect class="c" x="770" y="2" rx="2" ry="2"/><rect class="c" x="770" y="18" rx="2" ry="2"/><rect class="c" x="770" y="34" rx="2" ry="2"/><rect class="c" x="770" y="50" rx="2" ry="2"/><rect class="c" x="770" y="66" rx="2" ry="2"/><rect class="c" x="770" y="82" rx="2" ry="2"/><rect class="c" x="770" y="98" rx="2" ry="2"/><rect class="c" x="786" y="2" rx="2" ry="2"/><rect class="c" x="786" y="18" rx="2" ry="2"/><rect class="c" x="786" y="34" rx="2" ry="2"/><rect class="c" x="786" y="50" rx="2" ry="2"/><rect class="c" x="786" y="66" rx="2" ry="2"/><rect class="c" x="786" y="82" rx="2" ry="2"/><rect class="c" x="786" y="98" rx="2" ry="2"/><rect class="c" x="802" y="2" rx="2" ry="2"/><rect class="c cx" x="802" y="18" rx="2" ry="2"/><rect class="c" x="802" y="34" rx="2" ry="2"/><rect class="c cy" x="802" y="50" rx="2" ry="2"/><rect class="c cz" x="802" y="66" rx="2" ry="2"/><rect class="c c10" x="802" y="82" rx="2" ry="2"/><rect class="c c11" x="802" y="98" rx="2" ry="2"/><rect class="c c12" x="818" y="2" rx="2" ry="2"/><rect class="c" x="818" y="18" rx="2" ry="2"/><rect class="c" x="818" y="34" rx="2" ry="2"/><rect class="c c13" x="818" y="50" rx="2" ry="2"/><rect class="c c14" x="818" y="66" rx="2" ry="2"/><rect class="c" x="818" y="82" rx="2" ry="2"/><rect class="c" x="818" y="98" rx="2" ry="2"/><rect class="c" x="834" y="2" rx="2" ry="2"/><rect class="c" x="834" y="18" rx="2" ry="2"/><rect class="u u0" height="12" width="641.8" x="0.0" y="144"/><rect class="u u1" height="12" width="124.7" x="641.2" y="144"/><rect class="u u2" height="12" width="62.6" x="765.3" y="144"/><rect class="u u3" height="12" width="21.3" x="827.3" y="144"/><rect class="s s0" x="0.8" y="0.8" width="14.4" height="14.4" rx="4.5" ry="4.5"/><rect class="s s1" x="1.8" y="1.8" width="12.3" height="12.3" rx="4.1" ry="4.1"/><rect class="s s2" x="2.6" y="2.6" width="10.8" height="10.8" rx="3.6" ry="3.6"/><rect class="s s3" x="3.0" y="3.0" width="9.9" height="9.9" rx="3.3" ry="3.3"/></svg>